# xmcd
#
# Track frame offsets:
#	150
#	11389
#	21795
#	36088
#	59630
#	76400
#	82927
#	98794
#	115236
#	131406
#	149438
#	166812
#	183988
#	202800
#	221137
#	237155
#	248844
#	262602
#
# Disc length: 3734 seconds
#
# Revision: 0
# Processed by: cddbd v1.5.2PL0 Copyright (c) Steve Scherf et al.
# Submitted via: EasyCDDAExtractor 11.5.3.1
#
DISCID=e50e9412
DTITLE=Bob Dylan - Another Self Portrait (1969-1971): The Bootleg Series, Volu
DTITLE=me 10
DYEAR=2013
DGENRE=Folk-Rock
TTITLE0=If Not for You [Alternate Version]
TTITLE1=Wallflower [Alternate Version]
TTITLE2=Wigwam [Without Overdubs]
TTITLE3=Days of '49 [Without Overdubs]
TTITLE4=Working on a Guru
TTITLE5=Country Pie [Alternate Version]
TTITLE6=I'll Be Your Baby Tonight
TTITLE7=Highway 61 Revisited
TTITLE8=Copper Kettle [Without Overdubs]
TTITLE9=Bring Me a Little Water
TTITLE10=Sign on the Window [With Orchestral Overdubs]
TTITLE11=Tattle O'day
TTITLE12=If Dogs Run Free [Alternate Version]
TTITLE13=New Morning [With Horn Section Overdubs]
TTITLE14=Went to See the Gypsy [Alternate Version]
TTITLE15=Belle Isle [Without Overdubs]
TTITLE16=Time Passes Slowly #2 [Alternate Version]
TTITLE17=When I Paint My Masterpiece [Demo]
EXTD=
EXTT0=
EXTT1=
EXTT2=
EXTT3=
EXTT4=
EXTT5=
EXTT6=
EXTT7=
EXTT8=
EXTT9=
EXTT10=
EXTT11=
EXTT12=
EXTT13=
EXTT14=
EXTT15=
EXTT16=
EXTT17=
PLAYORDER=
